<svg width="45" height="45" viewBox="0 0 45 45" fill="none" xmlns="http://www.w3.org/2000/svg">
<circle cx="22.3652" cy="22.7065" r="22" fill="#7B60C4"/>
<path d="M29.117 33.9679L29.1206 33.966C29.4524 33.7983 29.8164 33.4531 30.094 32.9862C30.3702 32.5217 30.51 32.0222 30.494 31.6008L29.117 33.9679ZM29.117 33.9679C28.4185 34.3246 27.5819 34.1846 26.3223 33.7329C26.1252 33.6622 25.9082 33.5804 25.6817 33.4949C25.2658 33.338 24.8178 33.1689 24.4011 33.0345C23.7279 32.8174 22.9826 32.6346 22.2105 32.6346C21.4326 32.6346 20.6818 32.8262 20.0071 33.0513C19.5987 33.1876 19.1542 33.3603 18.7424 33.5203C18.5079 33.6114 18.2839 33.6984 18.0833 33.7722C16.8206 34.2367 16.0149 34.3606 15.3528 33.9874L15.3528 33.9873M29.117 33.9679L15.3528 33.9873M15.3528 33.9873L15.3411 33.9809M15.3528 33.9873L15.3411 33.9809M15.3411 33.9809C14.9464 33.7653 14.5461 33.326 14.2599 32.7347M15.3411 33.9809L14.2599 32.7347M14.2599 32.7347C13.9759 32.1479 13.852 31.5081 13.9095 30.9747L14.2599 32.7347ZM13.9096 30.9743C13.9834 30.2946 14.3862 29.7061 15.0889 29.0268C15.3592 28.7655 15.6441 28.5178 15.951 28.2509C16.0446 28.1695 16.1403 28.0863 16.2382 28.0005C16.6397 27.6483 17.0684 27.2593 17.4448 26.8287C17.9391 26.2767 18.3815 25.6233 18.7856 25.0012C18.887 24.845 18.9857 24.6914 19.0828 24.5402C19.3878 24.0654 19.6767 23.6157 19.9822 23.1941C20.8197 22.0384 21.4939 21.5194 22.2105 21.5194C22.93 21.5194 23.6206 22.0377 24.4603 23.1791C24.8057 23.6486 25.1337 24.1623 25.4794 24.7036C25.5362 24.7925 25.5935 24.8822 25.6514 24.9725C26.0487 25.5924 26.4766 26.2452 26.9416 26.8027C27.3244 27.2711 27.7616 27.7108 28.1719 28.1169C28.222 28.1665 28.2716 28.2155 28.3208 28.2641C28.688 28.6269 29.0306 28.9653 29.3432 29.3158C30.0541 30.1132 30.4637 30.8184 30.4939 31.6005L13.9096 30.9743Z" stroke="white" stroke-width="2"/>
<ellipse rx="2.67177" ry="4.42737" transform="matrix(-0.926876 0.375368 0.375368 0.926876 18.0571 15.413)" fill="white"/>
<ellipse rx="2.67177" ry="4.42737" transform="matrix(-0.759295 0.650747 0.650747 0.759295 12.3822 22.2585)" fill="white"/>
<ellipse cx="26.8108" cy="15.3131" rx="2.67177" ry="4.42737" transform="rotate(22.047 26.8108 15.3131)" fill="white"/>
<ellipse cx="32.3475" cy="22.2585" rx="2.67177" ry="4.42737" transform="rotate(40.5979 32.3475 22.2585)" fill="white"/>
</svg>
