<svg width="45" height="45" viewBox="0 0 45 45" fill="none" xmlns="http://www.w3.org/2000/svg">
<circle cx="22.2019" cy="22.7065" r="22" fill="#7B60C4"/>
<path d="M18.9876 10.2065C21.4503 10.2065 23.8122 11.1848 25.5536 12.9262C27.295 14.6676 28.2733 17.0295 28.2733 19.4922C28.2733 21.7922 27.4305 23.9065 26.0448 25.5351L26.4305 25.9208H27.559L34.7019 33.0636L32.559 35.2065L25.4162 28.0636V26.9351L25.0305 26.5493C23.3455 27.9876 21.2029 28.7778 18.9876 28.7779C16.5249 28.7779 14.163 27.7996 12.4216 26.0582C10.6802 24.3168 9.7019 21.9549 9.7019 19.4922C9.7019 17.0295 10.6802 14.6676 12.4216 12.9262C14.163 11.1848 16.5249 10.2065 18.9876 10.2065ZM18.9876 13.0636C15.4162 13.0636 12.559 15.9208 12.559 19.4922C12.559 23.0636 15.4162 25.9208 18.9876 25.9208C22.559 25.9208 25.4162 23.0636 25.4162 19.4922C25.4162 15.9208 22.559 13.0636 18.9876 13.0636Z" fill="white"/>
</svg>
