<svg width="45" height="45" viewBox="0 0 45 45" fill="none" xmlns="http://www.w3.org/2000/svg">
<circle cx="22.1941" cy="22.4351" r="22" fill="#7B60C4"/>
<path d="M12.758 33.9351H12.7489C12.7295 33.3908 12.6981 32.6706 12.6494 31.9151C12.5987 31.1303 12.5285 30.2936 12.431 29.5718C12.3823 29.2114 12.325 28.8663 12.2567 28.5639C12.1923 28.2784 12.1038 27.9645 11.9699 27.7053C11.1548 26.1276 10.6941 24.3366 10.6941 22.4351C10.6941 16.0838 15.8428 10.9351 22.1941 10.9351C28.5454 10.9351 33.6941 16.0838 33.6941 22.4351C33.6941 28.7863 28.5454 33.9351 22.1941 33.9351H22.1738H22.1534H22.1329H22.1124H22.0917H22.071H22.0503H22.0294H22.0085H21.9875H21.9664H21.9452H21.924H21.9027H21.8813H21.8598H21.8383H21.8167H21.795H21.7733H21.7515H21.7296H21.7076H21.6856H21.6635H21.6414H21.6191H21.5968H21.5745H21.552H21.5295H21.507H21.4844H21.4617H21.4389H21.4161H21.3932H21.3703H21.3473H21.3242H21.3011H21.2779H21.2546H21.2313H21.2079H21.1845H21.161H21.1375H21.1139H21.0902H21.0665H21.0427H21.0189H20.995H20.9711H20.9471H20.923H20.8989H20.8748H20.8506H20.8263H20.802H20.7776H20.7532H20.7288H20.7042H20.6797H20.6551H20.6304H20.6057H20.581H20.5562H20.5313H20.5064H20.4815H20.4565H20.4315H20.4064H20.3813H20.3561H20.3309H20.3057H20.2804H20.2551H20.2297H20.2043H20.1789H20.1534H20.1278H20.1023H20.0767H20.051H20.0254H19.9996H19.9739H19.9481H19.9223H19.8964H19.8706H19.8446H19.8187H19.7927H19.7667H19.7406H19.7145H19.6884H19.6623H19.6361H19.6099H19.5836H19.5574H19.5311H19.5048H19.4784H19.4521H19.4257H19.3992H19.3728H19.3463H19.3198H19.2933H19.2667H19.2402H19.2136H19.1869H19.1603H19.1337H19.107H19.0803H19.0536H19.0268H19.0001H18.9733H18.9465H18.9197H18.8929H18.866H18.8392H18.8123H18.7854H18.7585H18.7316H18.7046H18.6777H18.6507H18.6237H18.5968H18.5698H18.5428H18.5158H18.4887H18.4617H18.4346H18.4076H18.3805H18.3535H18.3264H18.2993H18.2722H18.2451H18.218H18.1909H18.1638H18.1367H18.1096H18.0825H18.0553H18.0282H18.0011H17.974H17.9468H17.9197H17.8926H17.8655H17.8383H17.8112H17.7841H17.757H17.7299H17.7027H17.6756H17.6485H17.6214H17.5944H17.5673H17.5402H17.5131H17.486H17.459H17.4319H17.4049H17.3779H17.3508H17.3238H17.2968H17.2698H17.2429H17.2159H17.1889H17.162H17.1351H17.1082H17.0813H17.0544H17.0275H17.0007H16.9738H16.947H16.9202H16.8934H16.8666H16.8399H16.8132H16.7865H16.7598H16.7331H16.7064H16.6798H16.6532H16.6266H16.6001H16.5735H16.547H16.5205H16.4941H16.4676H16.4412H16.4148H16.3885H16.3621H16.3358H16.3095H16.2833H16.2571H16.2309H16.2047H16.1786H16.1525H16.1264H16.1004H16.0744H16.0484H16.0224H15.9965H15.9707H15.9448H15.919H15.8932H15.8675H15.8418H15.8161H15.7905H15.7649H15.7394H15.7139H15.6884H15.663H15.6376H15.6122H15.5869H15.5617H15.5364H15.5113H15.4861H15.461H15.436H15.411H15.386H15.3611H15.3362H15.3114H15.2866H15.2619H15.2372H15.2125H15.188H15.1634H15.1389H15.1145H15.0901H15.0658H15.0415H15.0172H14.993H14.9689H14.9448H14.9208H14.8968H14.8729H14.8491H14.8253H14.8015H14.7778H14.7542H14.7306H14.7071H14.6836H14.6602H14.6369H14.6136H14.5904H14.5672H14.5441H14.521H14.4981H14.4751H14.4523H14.4295H14.4068H14.3841H14.3615H14.339H14.3165H14.2941H14.2718H14.2495H14.2273H14.2052H14.1831H14.1611H14.1392H14.1174H14.0956H14.0739H14.0522H14.0306H14.0091H13.9877H13.9664H13.9451H13.9239H13.9028H13.8817H13.8607H13.8398H13.819H13.7983H13.7776H13.757H13.7365H13.716H13.6957H13.6754H13.6552H13.6351H13.6151H13.5951H13.5752H13.5554H13.5357H13.5161H13.4966H13.4771H13.4578H13.4385H13.4193H13.4002H13.3811H13.3622H13.3434H13.3246H13.3059H13.2873H13.2689H13.2505H13.2321H13.2139H13.1958H13.1777H13.1598H13.1419H13.1242H13.1065H13.089H13.0715H13.0541H13.0368H13.0196H13.0025H12.9855H12.9686H12.9518H12.9351H12.9185H12.902H12.8856H12.8693H12.8531H12.837H12.821H12.8051H12.7893H12.7736H12.758Z" stroke="white" stroke-width="2"/>
<path fill-rule="evenodd" clip-rule="evenodd" d="M27.2049 17.8373C25.8563 16.4413 23.6699 16.4413 22.3214 17.8373L22.1938 17.9694L22.0666 17.8378C20.7181 16.4418 18.5317 16.4418 17.1832 17.8378C15.8346 19.2337 15.8346 21.497 17.1832 22.893L21.9215 27.7979L21.9215 27.7979L22.1938 28.0798L27.2049 22.8925C28.5534 21.4965 28.5534 19.2332 27.2049 17.8373Z" fill="white"/>
</svg>
