<svg width="26" height="25" viewBox="0 0 26 25" fill="none" xmlns="http://www.w3.org/2000/svg">
<path d="M9.98737 0C12.4501 0 14.812 0.978313 16.5534 2.71972C18.2948 4.46113 19.2731 6.82299 19.2731 9.28571C19.2731 11.5857 18.4302 13.7 17.0445 15.3286L17.4302 15.7143H18.5588L25.7017 22.8571L23.5588 25L16.4159 17.8571V16.7286L16.0302 16.3429C14.3453 17.7811 12.2027 18.5713 9.98737 18.5714C7.52465 18.5714 5.16279 17.5931 3.42138 15.8517C1.67997 14.1103 0.70166 11.7484 0.70166 9.28571C0.70166 6.82299 1.67997 4.46113 3.42138 2.71972C5.16279 0.978313 7.52465 0 9.98737 0ZM9.98737 2.85714C6.41595 2.85714 3.5588 5.71429 3.5588 9.28571C3.5588 12.8571 6.41595 15.7143 9.98737 15.7143C13.5588 15.7143 16.4159 12.8571 16.4159 9.28571C16.4159 5.71429 13.5588 2.85714 9.98737 2.85714Z" fill="#7B60C4"/>
</svg>
