<svg width="26" height="26" viewBox="0 0 26 26" fill="none" xmlns="http://www.w3.org/2000/svg">
<path d="M3.92918 24.5H3.92006C3.90063 23.9558 3.86928 23.2355 3.82052 22.48C3.76988 21.6953 3.6996 20.8585 3.60209 20.1368C3.5534 19.7763 3.49617 19.4312 3.42789 19.1289C3.3634 18.8433 3.27491 18.5294 3.14099 18.2702C2.32596 16.6925 1.86523 14.9015 1.86523 13C1.86523 6.64873 7.01396 1.5 13.3652 1.5C19.7165 1.5 24.8652 6.64873 24.8652 13C24.8652 19.3513 19.7165 24.5 13.3652 24.5H13.3449H13.3245H13.3041H13.2835H13.2629H13.2422H13.2214H13.2005H13.1796H13.1586H13.1375H13.1164H13.0951H13.0738H13.0524H13.031H13.0094H12.9878H12.9662H12.9444H12.9226H12.9007H12.8788H12.8568H12.8347H12.8125H12.7903H12.768H12.7456H12.7232H12.7007H12.6781H12.6555H12.6328H12.6101H12.5872H12.5644H12.5414H12.5184H12.4953H12.4722H12.449H12.4258H12.4025H12.3791H12.3557H12.3322H12.3086H12.285H12.2614H12.2376H12.2139H12.19H12.1662H12.1422H12.1182H12.0942H12.0701H12.0459H12.0217H11.9974H11.9731H11.9488H11.9244H11.8999H11.8754H11.8508H11.8262H11.8016H11.7769H11.7521H11.7273H11.7025H11.6776H11.6526H11.6276H11.6026H11.5775H11.5524H11.5273H11.5021H11.4768H11.4515H11.4262H11.4008H11.3754H11.35H11.3245H11.299H11.2734H11.2478H11.2222H11.1965H11.1708H11.145H11.1193H11.0934H11.0676H11.0417H11.0158H10.9898H10.9638H10.9378H10.9118H10.8857H10.8596H10.8334H10.8072H10.781H10.7548H10.7285H10.7022H10.6759H10.6496H10.6232H10.5968H10.5704H10.5439H10.5174H10.4909H10.4644H10.4379H10.4113H10.3847H10.3581H10.3315H10.3048H10.2781H10.2514H10.2247H10.198H10.1712H10.1444H10.1176H10.0908H10.064H10.0372H10.0103H9.98342H9.95653H9.92962H9.9027H9.87577H9.84882H9.82186H9.79489H9.76791H9.74092H9.71391H9.68689H9.65987H9.63283H9.60579H9.57874H9.55167H9.52461H9.49753H9.47045H9.44336H9.41626H9.38916H9.36206H9.33495H9.30784H9.28072H9.2536H9.22648H9.19936H9.17223H9.14511H9.11798H9.09085H9.06373H9.0366H9.00948H8.98236H8.95523H8.92812H8.901H8.87389H8.84678H8.81968H8.79258H8.76549H8.73841H8.71133H8.68425H8.65719H8.63013H8.60308H8.57604H8.54901H8.52199H8.49498H8.46798H8.44099H8.41401H8.38704H8.36009H8.33315H8.30622H8.27931H8.25241H8.22552H8.19865H8.1718H8.14496H8.11814H8.09134H8.06456H8.03779H8.01104H7.98431H7.9576H7.93091H7.90424H7.87759H7.85096H7.82436H7.79777H7.77121H7.74467H7.71816H7.69167H7.6652H7.63876H7.61235H7.58596H7.5596H7.53327H7.50696H7.48068H7.45443H7.4282H7.40201H7.37585H7.34972H7.32361H7.29754H7.2715H7.2455H7.21952H7.19358H7.16767H7.1418H7.11596H7.09015H7.06438H7.03865H7.01295H6.98729H6.96167H6.93608H6.91053H6.88503H6.85956H6.83413H6.80874H6.78339H6.75808H6.73281H6.70759H6.6824H6.65726H6.63217H6.60712H6.58211H6.55714H6.53223H6.50735H6.48253H6.45775H6.43301H6.40833H6.38369H6.3591H6.33456H6.31007H6.28563H6.26124H6.2369H6.21261H6.18838H6.16419H6.14006H6.11598H6.09196H6.06799H6.04407H6.02021H5.9964H5.97265H5.94896H5.92532H5.90174H5.87822H5.85476H5.83135H5.80801H5.78472H5.7615H5.73833H5.71523H5.69219H5.66921H5.64629H5.62344H5.60065H5.57792H5.55526H5.53266H5.51013H5.48766H5.46526H5.44292H5.42066H5.39846H5.37633H5.35426H5.33227H5.31035H5.28849H5.26671H5.245H5.22336H5.20179H5.18029H5.15886H5.13751H5.11624H5.09503H5.0739H5.05285H5.03187H5.01097H4.99015H4.9694H4.94873H4.92813H4.90762H4.88718H4.86683H4.84655H4.82635H4.80624H4.7862H4.76625H4.74638H4.72659H4.70689H4.68726H4.66773H4.64827H4.62891H4.60962H4.59043H4.57132H4.55229H4.53335H4.51451H4.49575H4.47707H4.45849H4.44H4.42159H4.40328H4.38506H4.36693H4.34889H4.33095H4.31309H4.29533H4.27767H4.2601H4.24262H4.22524H4.20795H4.19076H4.17367H4.15667H4.13977H4.12297H4.10627H4.08967H4.07316H4.05676H4.04046H4.02425H4.00815H3.99215H3.97626H3.96046H3.94477H3.92918Z" stroke="#7B60C4" stroke-width="2"/>
<path fill-rule="evenodd" clip-rule="evenodd" d="M18.376 8.40226C17.0275 7.00629 14.8411 7.0063 13.4925 8.40226L13.3649 8.53436L13.2378 8.40277C11.8893 7.0068 9.70284 7.0068 8.3543 8.40277C7.00576 9.79873 7.00576 12.062 8.3543 13.458L13.0926 18.3629L13.0927 18.3629L13.365 18.6448L18.376 13.4575C19.7246 12.0615 19.7246 9.79822 18.376 8.40226Z" fill="#7B60C4"/>
</svg>
