<svg width="31" height="26" viewBox="0 0 31 26" fill="none" xmlns="http://www.w3.org/2000/svg">
<path d="M22.1171 24.2614L22.1208 24.2595C22.4526 24.0918 22.8166 23.7466 23.0942 23.2797C23.3703 22.8151 23.5101 22.3157 23.4941 21.8943L22.1171 24.2614ZM22.1171 24.2614C21.4186 24.6181 20.582 24.4781 19.3224 24.0264C19.1253 23.9557 18.9083 23.8738 18.6818 23.7883C18.266 23.6314 17.8179 23.4623 17.4012 23.3279C16.728 23.1108 15.9827 22.9281 15.2106 22.9281C14.4328 22.9281 13.682 23.1197 13.0073 23.3448C12.5988 23.481 12.1543 23.6537 11.7426 23.8137C11.508 23.9049 11.284 23.9919 11.0834 24.0657C9.82069 24.5302 9.01498 24.654 8.35291 24.2808L8.35295 24.2808M22.1171 24.2614L8.35295 24.2808M8.35295 24.2808L8.34122 24.2743M8.35295 24.2808L8.34122 24.2743M8.34122 24.2743C7.94653 24.0588 7.54625 23.6194 7.26007 23.0282M8.34122 24.2743L7.26007 23.0282M7.26007 23.0282C6.976 22.4413 6.85215 21.8016 6.90967 21.2681L7.26007 23.0282ZM6.90971 21.2677C6.98349 20.5881 7.38632 19.9996 8.08902 19.3203C8.35933 19.059 8.64423 18.8112 8.95117 18.5443C9.04476 18.463 9.1404 18.3798 9.23831 18.2939C9.63982 17.9417 10.0685 17.5527 10.4449 17.1221C10.9392 16.5701 11.3816 15.9168 11.7857 15.2946C11.8871 15.1385 11.9859 14.9848 12.0829 14.8337C12.388 14.3588 12.6768 13.9092 12.9823 13.4876C13.8198 12.3318 14.494 11.8129 15.2106 11.8129C15.9301 11.8129 16.6207 12.3312 17.4604 13.4725C17.8059 13.9421 18.1339 14.4557 18.4796 14.997C18.5364 15.086 18.5936 15.1756 18.6515 15.266C19.0488 15.8859 19.4767 16.5387 19.9418 17.0962C20.3245 17.5645 20.7617 18.0042 21.1721 18.4104C21.2221 18.4599 21.2717 18.509 21.3209 18.5575C21.6881 18.9203 22.0307 19.2587 22.3433 19.6093C23.0542 20.4066 23.4638 21.1119 23.4941 21.8939L6.90971 21.2677Z" stroke="#7B60C4" stroke-width="2"/>
<ellipse rx="2.67177" ry="4.42737" transform="matrix(-0.926876 0.375368 0.375368 0.926876 11.0572 5.70649)" fill="#7B60C4"/>
<ellipse rx="2.67177" ry="4.42737" transform="matrix(-0.759295 0.650747 0.650747 0.759295 5.38234 12.552)" fill="#7B60C4"/>
<ellipse cx="19.8107" cy="5.60651" rx="2.67177" ry="4.42737" transform="rotate(22.047 19.8107 5.60651)" fill="#7B60C4"/>
<ellipse cx="25.3476" cy="12.552" rx="2.67177" ry="4.42737" transform="rotate(40.5979 25.3476 12.552)" fill="#7B60C4"/>
</svg>
