<svg width="16" height="14" viewBox="0 0 16 14" fill="none" xmlns="http://www.w3.org/2000/svg">
<path d="M4.6458 5.30835C4.12725 5.30835 3.7083 5.72436 3.7083 6.21948C3.7083 6.7644 4.12725 7.18335 4.6458 7.18335C5.16436 7.18335 5.55694 6.76587 5.55694 6.24585C5.55694 5.72583 5.16729 5.30835 4.6458 5.30835ZM7.92705 5.28198C7.40703 5.28198 7.01592 5.69946 7.01592 6.21948C7.01592 6.7395 7.4334 7.13061 7.92705 7.13061C8.42071 7.13061 8.83819 6.71313 8.83819 6.21948C8.83819 5.72583 8.44854 5.28198 7.92705 5.28198ZM11.2083 5.30835C10.6883 5.30835 10.2972 5.72583 10.2972 6.24585C10.2972 6.76587 10.7147 7.18335 11.2083 7.18335C11.7283 7.18335 12.1455 6.76587 12.1455 6.24585C12.1458 5.72436 11.7298 5.30835 11.2083 5.30835ZM7.92705 0.125732C3.78447 0.125732 0.45342 2.85386 0.45342 6.21948C0.45342 7.6146 1.03672 8.89282 2.00352 9.91968C1.56787 11.0769 0.65967 12.0548 0.645021 12.0657C0.450959 12.2708 0.399718 12.571 0.509552 12.8274C0.597502 13.1072 0.848341 13.2771 1.13018 13.2771C2.93164 13.2771 4.32647 12.5227 5.20537 11.9221C6.05117 12.1858 6.96787 12.3396 7.92705 12.3396C12.0696 12.3396 15.4007 9.61118 15.4007 6.27222C15.4007 2.93325 12.0696 0.125732 7.92705 0.125732ZM7.92705 10.9333C7.14336 10.9333 6.3708 10.8125 5.63135 10.5783L4.96485 10.3695L4.39385 10.7722C3.97637 11.0687 3.40156 11.3986 2.70957 11.6218C2.92561 11.2667 3.13057 10.8674 3.2917 10.4426L3.60283 9.62231L2.99873 8.98159C2.47227 8.41675 1.83506 7.48218 1.83506 6.24585C1.83506 3.6604 4.5667 1.55835 7.90244 1.55835C11.2382 1.55835 13.9698 3.6604 13.9698 6.24585C13.9698 8.8313 11.2903 10.9333 7.92705 10.9333Z" fill="#949494"/>
</svg>
