<svg width="14" height="12" viewBox="0 0 14 12" fill="none" xmlns="http://www.w3.org/2000/svg">
<path d="M7.28381 9.79272L7.22131 9.85523L7.15256 9.79272C4.18381 7.09897 2.22131 5.31773 2.22131 3.51147C2.22131 2.26147 3.15881 1.32397 4.40881 1.32397C5.37131 1.32397 6.30881 1.94897 6.64006 2.79897H7.80256C8.13381 1.94897 9.07131 1.32397 10.0338 1.32397C11.2838 1.32397 12.2213 2.26147 12.2213 3.51147C12.2213 5.31773 10.2588 7.09897 7.28381 9.79272ZM10.0338 0.0739746C8.94631 0.0739746 7.90256 0.580225 7.22131 1.37397C6.54006 0.580225 5.49631 0.0739746 4.40881 0.0739746C2.48381 0.0739746 0.971313 1.58022 0.971313 3.51147C0.971313 5.86773 3.09631 7.79898 6.31506 10.7177L7.22131 11.5427L8.12756 10.7177C11.3463 7.79898 13.4713 5.86773 13.4713 3.51147C13.4713 1.58022 11.9588 0.0739746 10.0338 0.0739746Z" fill="#949494"/>
</svg>
