<svg width="16" height="16" viewBox="0 0 16 16" fill="none" xmlns="http://www.w3.org/2000/svg">
<path d="M8.0672 0.323975C6.58119 0.323975 5.12856 0.763842 3.893 1.58795C2.65743 2.41206 1.69443 3.5834 1.12576 4.95385C0.557088 6.32429 0.408299 7.83229 0.698203 9.28715C0.988108 10.742 1.70369 12.0784 2.75445 13.1273C3.80521 14.1762 5.14396 14.8905 6.60141 15.1799C8.05886 15.4692 9.56955 15.3207 10.9424 14.7531C12.3153 14.1854 13.4887 13.2241 14.3143 11.9907C15.1399 10.7574 15.5806 9.30733 15.5806 7.82397C15.5806 6.83906 15.3862 5.86379 15.0086 4.95385C14.6311 4.04391 14.0776 3.21711 13.3799 2.52067C12.6823 1.82423 11.854 1.27179 10.9424 0.894878C10.0309 0.517968 9.05386 0.323975 8.0672 0.323975V0.323975ZM8.0672 13.824C6.87839 13.824 5.71629 13.4721 4.72784 12.8128C3.73938 12.1535 2.96898 11.2164 2.51404 10.1201C2.05911 9.02372 1.94008 7.81732 2.172 6.65343C2.40393 5.48955 2.97639 4.42045 3.817 3.58133C4.65761 2.74222 5.72861 2.17077 6.89457 1.93926C8.06053 1.70775 9.26908 1.82657 10.3674 2.2807C11.4657 2.73482 12.4044 3.50386 13.0649 4.49055C13.7254 5.47725 14.0779 6.63728 14.0779 7.82397C14.0779 9.41527 13.4446 10.9414 12.3174 12.0666C11.1902 13.1918 9.66133 13.824 8.0672 13.824V13.824Z" fill="#949494"/>
<path d="M8.0673 3.32403C7.36986 3.32403 6.701 3.60059 6.20784 4.09287C5.71468 4.58515 5.43762 5.25283 5.43762 5.94902C5.43762 6.14794 5.51678 6.3387 5.65768 6.47935C5.79859 6.62001 5.98969 6.69902 6.18896 6.69902C6.38822 6.69902 6.57933 6.62001 6.72023 6.47935C6.86114 6.3387 6.94029 6.14794 6.94029 5.94902C6.94029 5.72652 7.00639 5.50901 7.13023 5.32401C7.25406 5.139 7.43008 4.99481 7.63601 4.90966C7.84195 4.82451 8.06855 4.80223 8.28717 4.84564C8.50578 4.88905 8.7066 4.9962 8.86421 5.15353C9.02182 5.31086 9.12916 5.51132 9.17265 5.72955C9.21613 5.94778 9.19381 6.17398 9.10851 6.37954C9.02321 6.58511 8.87876 6.76081 8.69343 6.88443C8.50809 7.00804 8.2902 7.07402 8.0673 7.07402C7.86803 7.07402 7.67693 7.15304 7.53602 7.29369C7.39512 7.43435 7.31596 7.62511 7.31596 7.82402V9.32402C7.31596 9.52294 7.39512 9.7137 7.53602 9.85435C7.67693 9.99501 7.86803 10.074 8.0673 10.074C8.26656 10.074 8.45767 9.99501 8.59857 9.85435C8.73948 9.7137 8.81863 9.52294 8.81863 9.32402V8.45402C9.42579 8.27703 9.94839 7.88692 10.2901 7.3556C10.6318 6.82429 10.7697 6.18758 10.6782 5.56282C10.5867 4.93807 10.272 4.36739 9.79221 3.95597C9.31241 3.54454 8.6998 3.32011 8.0673 3.32403V3.32403Z" fill="#949494"/>
<path d="M8.06713 12.324C8.48208 12.324 8.81847 11.9882 8.81847 11.574C8.81847 11.1598 8.48208 10.824 8.06713 10.824C7.65218 10.824 7.3158 11.1598 7.3158 11.574C7.3158 11.9882 7.65218 12.324 8.06713 12.324Z" fill="#949494"/>
</svg>
