<svg width="76" height="76" viewBox="0 0 76 76" fill="none" xmlns="http://www.w3.org/2000/svg">
<path d="M31.6 3.69504C33.9315 2.34892 35.0973 1.67586 36.3367 1.41242C37.4333 1.17933 38.5667 1.17933 39.6633 1.41242C40.9027 1.67586 42.0685 2.34892 44.4 3.69504L64.509 15.305C66.8405 16.6511 68.0063 17.3241 68.8541 18.2658C69.6043 19.0989 70.171 20.0804 70.5174 21.1467C70.909 22.3517 70.909 23.6978 70.909 26.3901V49.6099C70.909 52.3022 70.909 53.6483 70.5174 54.8533C70.171 55.9196 69.6043 56.9011 68.8541 57.7342C68.0063 58.6759 66.8405 59.3489 64.509 60.695L44.4 72.305C42.0685 73.6511 40.9027 74.3241 39.6633 74.5876C38.5667 74.8207 37.4333 74.8207 36.3367 74.5876C35.0973 74.3241 33.9315 73.6511 31.6 72.305L11.491 60.695C9.15949 59.3489 7.99371 58.6759 7.14588 57.7342C6.39571 56.9011 5.82902 55.9196 5.48258 54.8533C5.09103 53.6483 5.09103 52.3022 5.09103 49.6099V26.3901C5.09103 23.6978 5.09103 22.3517 5.48258 21.1467C5.82902 20.0804 6.39571 19.0989 7.14588 18.2658C7.99371 17.3241 9.15949 16.6511 11.491 15.305L31.6 3.69504Z" fill="url(#paint0_linear_423_837)"/>
<path d="M31.85 7.12805C34.2108 5.76507 35.2971 5.14456 36.4407 4.9015C37.4687 4.68297 38.5313 4.68297 39.5593 4.9015C40.7029 5.14456 41.7892 5.76507 44.15 7.12805L61.6609 17.238C64.0216 18.601 65.1022 19.2315 65.8845 20.1003C66.5878 20.8814 67.119 21.8016 67.4438 22.8012C67.8051 23.913 67.8109 25.1641 67.8109 27.8901V48.1099C67.8109 50.8359 67.8051 52.087 67.4438 53.1988C67.119 54.1984 66.5878 55.1186 65.8845 55.8997C65.1022 56.7685 64.0216 57.399 61.6609 58.762L44.15 68.8719C41.7892 70.2349 40.7029 70.8554 39.5593 71.0985C38.5313 71.317 37.4687 71.317 36.4407 71.0985C35.2971 70.8554 34.2108 70.2349 31.85 68.8719L14.3391 58.762C11.9784 57.399 10.8978 56.7685 10.1155 55.8997C9.41224 55.1186 8.88098 54.1984 8.55619 53.1988C8.19492 52.087 8.18911 50.8359 8.18911 48.1099V27.8901C8.18911 25.1641 8.19492 23.913 8.55619 22.8012C8.88098 21.8016 9.41224 20.8814 10.1155 20.1003C10.8978 19.2315 11.9784 18.601 14.3391 17.238L31.85 7.12805Z" stroke="white" stroke-opacity="0.2"/>
<g filter="url(#filter0_f_423_837)">
<circle cx="33.5" cy="45.5" r="14.5" fill="#1EFFD6"/>
</g>
<g filter="url(#filter1_f_423_837)">
<circle cx="44.5" cy="27.5" r="10.5" fill="#ECFF12"/>
</g>
<circle cx="38" cy="38" r="17" fill="url(#paint1_radial_423_837)"/>
<path d="M28.6426 30.0536C26.4072 30.92 26.2022 34.3857 27.8772 35.2319C29.5523 36.0781 31.5624 33.5511 30.8577 31.3908C30.5025 30.3106 29.5725 29.7503 28.6426 30.0536Z" fill="#412121"/>
<path d="M37.1798 27.5323C34.7047 28.3236 34.826 31.3994 36.8246 32.3352C38.9358 33.3229 41.1076 31.4341 40.348 29.2709C40.1242 28.642 39.6765 28.1176 39.0904 27.798C38.5044 27.4783 37.8211 27.3858 37.1711 27.5381" fill="#412121"/>
<path d="M37.0787 44.0724H37.0527H37.0787ZM36.8621 44.1359H36.8881H36.8621ZM37.1653 44.0435H37.1365H37.1653ZM36.7697 44.159H36.8043H36.7697ZM37.2491 44.0146H37.2144H37.2491ZM36.6859 44.1792H36.7235H36.6859ZM37.3242 43.9944H37.2953H37.3242ZM36.6022 44.2081H36.6397H36.6022ZM37.4022 43.9655H37.3704H37.4022ZM36.5213 44.2255H36.5588H36.5213ZM37.4773 43.9366H37.4484H37.4773ZM36.4404 44.2255H36.478H36.4404ZM37.5523 43.8875H37.5235H37.5523ZM36.3567 44.2399H36.4H36.3567ZM37.6245 43.8558H37.5986H37.6245ZM36.2787 44.2514H36.3191H36.2787ZM37.6939 43.824H37.6736H37.6939ZM36.2007 44.2832H36.2412H36.2007ZM37.7632 43.8125H37.7458H37.7632ZM36.1227 44.2832H36.1632H36.1227ZM37.8325 43.7662H37.818H37.8325ZM36.0534 44.2832H36.0996H36.0534ZM35.7011 44.3005C35.7617 44.3005 35.8253 44.3005 35.8859 44.3005C35.8253 44.3005 35.7617 44.3005 35.7011 44.3005ZM35.1148 44.2832H35.1523H35.1148ZM35.0455 44.2832H35.0801H35.0455ZM34.8347 44.2832H34.8635H34.8347ZM34.5401 44.1764H34.5545H34.5401ZM38.2224 35.3561C38.1375 35.3806 38.056 35.4155 37.9798 35.4601L38.0722 35.4139C38.748 40.5951 34.2339 41.2652 32.296 39.6825C31.6511 39.0972 31.1567 38.3651 30.8549 37.5482H30.9531C29.1596 37.5886 30.9531 41.5511 32.4751 42.9807C32.5444 43.0471 32.6426 43.1309 32.7177 43.1944C34.6585 41.9063 37.2087 41.1554 39.8946 41.0803C40.2238 39.5612 39.9957 34.92 38.2397 35.3677" fill="#412121"/>
<path d="M36.0245 41.6839C34.8471 42.0146 33.7278 42.5251 32.7061 43.1973C33.2735 43.712 33.9668 44.0678 34.7159 44.2286C35.4649 44.3893 36.2432 44.3494 36.9718 44.1128C37.6917 43.9303 38.346 43.5497 38.8605 43.0142C39.3751 42.4787 39.7293 41.8098 39.883 41.0832C38.5761 41.1132 37.2787 41.3152 36.0245 41.6839Z" fill="#FA4542"/>
<path d="M38.0751 35.4197C37.9402 35.483 37.8171 35.5689 37.7112 35.6738C37.2202 36.0724 35.9408 37.0399 34.6325 37.4269C33.4675 37.7255 32.2516 37.7679 31.0686 37.5511C30.9988 37.5396 30.9276 37.5396 30.8578 37.5511C32.4607 41.7937 36.7322 40.7771 37.8036 38.3684C38.309 37.2132 38.1502 36.0088 38.0751 35.4226" fill="white"/>
<path d="M25.3675 37.2247C23.2015 38.2182 24.0621 41.5886 25.691 42.1807C27.3834 42.7987 28.9805 40.5633 28.2007 38.663C27.7069 37.4558 26.4361 36.8117 25.3675 37.2189" fill="#FA4542"/>
<path d="M43.9379 31.7576C41.0816 32.5489 40.6455 35.3503 42.5921 36.4507C44.9343 37.7734 48.1574 35.9366 47.6058 33.5973C47.2563 32.1532 45.6506 31.3532 43.9524 31.7518" fill="#FA4542"/>
<defs>
<filter id="filter0_f_423_837" x="6" y="18" width="55" height="55" filterUnits="userSpaceOnUse" color-interpolation-filters="sRGB">
<feFlood flood-opacity="0" result="BackgroundImageFix"/>
<feBlend mode="normal" in="SourceGraphic" in2="BackgroundImageFix" result="shape"/>
<feGaussianBlur stdDeviation="6.5" result="effect1_foregroundBlur_423_837"/>
</filter>
<filter id="filter1_f_423_837" x="21" y="4" width="47" height="47" filterUnits="userSpaceOnUse" color-interpolation-filters="sRGB">
<feFlood flood-opacity="0" result="BackgroundImageFix"/>
<feBlend mode="normal" in="SourceGraphic" in2="BackgroundImageFix" result="shape"/>
<feGaussianBlur stdDeviation="6.5" result="effect1_foregroundBlur_423_837"/>
</filter>
<linearGradient id="paint0_linear_423_837" x1="71.4138" y1="-5" x2="16.0591" y2="80.5949" gradientUnits="userSpaceOnUse">
<stop stop-color="#FD93FF"/>
<stop offset="1" stop-color="#725CF8"/>
</linearGradient>
<radialGradient id="paint1_radial_423_837" cx="0" cy="0" r="1" gradientUnits="userSpaceOnUse" gradientTransform="translate(39.1637 41.1865) scale(19.5929 19.5806)">
<stop stop-color="#F79F40"/>
<stop offset="0.16" stop-color="#F7A542"/>
<stop offset="0.37" stop-color="#F8B44A"/>
<stop offset="0.6" stop-color="#FACE55"/>
<stop offset="0.77" stop-color="#FBE660"/>
<stop offset="0.91" stop-color="#FBF36F"/>
<stop offset="0.93" stop-color="#FBF672"/>
<stop offset="0.95" stop-color="#FBF676"/>
<stop offset="0.96" stop-color="#FBF783"/>
<stop offset="0.98" stop-color="#FCF897"/>
<stop offset="0.99" stop-color="#FDFAB4"/>
<stop offset="1" stop-color="#FDFBC2"/>
</radialGradient>
</defs>
</svg>
