<svg width="303" height="451" viewBox="0 0 303 451" fill="none" xmlns="http://www.w3.org/2000/svg">
<g filter="url(#filter0_f_152_1288)">
<ellipse cx="151.691" cy="151.843" rx="95.7886" ry="95.843" fill="#FF9C28"/>
</g>
<g filter="url(#filter1_f_152_1288)">
<ellipse cx="109.181" cy="325.948" rx="53.2789" ry="69.1885" fill="#D5FF8F"/>
</g>
<g clip-path="url(#clip0_152_1288)">
<path d="M161.996 347.927C162.305 347.529 162.614 347.132 162.9 346.712C163.187 346.293 163.894 345.255 164.357 344.504L165.041 343.4C165.703 342.274 166.343 341.192 166.895 339.934L174.508 324.19C173.934 325.383 173.316 326.531 172.632 327.657C172.434 328.032 172.169 328.386 171.948 328.761C171.485 329.49 171.021 330.24 170.514 330.969L169.587 332.184C169.101 332.824 168.616 333.464 168.108 334.082L167.049 335.319C166.52 335.893 165.99 336.489 165.438 337.041L164.291 338.211C163.717 338.763 163.121 339.293 162.525 339.823L161.289 340.883C160.657 341.413 159.995 341.921 159.303 342.407C158.906 342.716 158.509 343.047 158.09 343.334C157.295 343.886 156.501 344.394 155.684 344.902C155.353 345.123 155.022 345.365 154.669 345.564C153.5 346.271 152.286 346.933 151.05 347.573L150.41 347.86C149.373 348.368 148.203 348.876 147.232 349.318L145.842 349.87L143.238 350.841L141.605 351.349C140.767 351.614 139.906 351.879 139.045 352.1L137.28 352.542C136.441 352.74 135.559 352.939 134.698 353.094L132.866 353.447L130.152 353.822L128.298 354.065L125.363 354.286H123.642C122.561 354.286 121.435 354.286 120.398 354.286H118.765C117.132 354.286 115.477 354.153 113.822 353.999C75.6448 350.598 42.9845 320.525 40.9985 286.831C40.4109 278.31 42.014 269.781 45.6547 262.057L38.0634 277.822C34.3593 285.567 32.7247 294.141 33.3189 302.706C35.3933 336.401 68.0314 366.474 106.142 369.875C107.819 370.029 109.475 370.117 111.108 370.162H115.962H117.706L120.641 369.941L122.472 369.72C123.399 369.587 124.304 369.477 125.187 369.323L127.018 368.991L129.622 368.417L131.388 367.976C132.248 367.755 133.087 367.49 133.926 367.247L135.559 366.717C136.463 366.408 137.324 366.077 138.185 365.746L139.575 365.216C140.656 364.752 141.782 364.266 142.753 363.736L143.393 363.449C144.628 362.831 145.82 362.146 147.012 361.44C147.343 361.241 147.674 360.998 148.027 360.8C148.821 360.27 149.638 359.762 150.41 359.21L151.646 358.304C152.308 357.797 152.992 357.289 153.632 356.759L154.846 355.699C155.464 355.169 156.037 354.639 156.611 354.087C157.185 353.535 157.406 353.314 157.781 352.917C158.156 352.519 158.862 351.791 159.392 351.195L160.451 349.98C161.025 349.229 161.51 348.589 161.996 347.927Z" fill="url(#paint0_linear_152_1288)"/>
<path d="M179.231 299.283C177.179 265.611 144.518 235.516 106.407 232.115C68.2965 228.715 38.9244 253.268 40.9987 286.963C43.0731 320.657 75.7113 350.73 113.822 354.131C151.933 357.531 181.305 333 179.231 299.283Z" fill="url(#paint1_linear_152_1288)"/>
<path style="mix-blend-mode:overlay" opacity="0.7" d="M179.231 299.283C177.179 265.611 144.518 235.516 106.407 232.115C68.2965 228.715 38.9244 253.268 40.9987 286.963C43.0731 320.657 75.7113 350.73 113.822 354.131C151.933 357.531 181.305 333 179.231 299.283ZM165.571 335.959C154.78 347.441 138.891 353.755 120.84 353.755C118.633 353.755 116.205 353.755 113.866 353.446C76.0643 350.068 43.6468 320.326 41.6166 286.919C41.1349 280.247 42.0391 273.548 44.2723 267.244C46.5055 260.94 50.0194 255.166 54.5924 250.287C65.3835 238.806 81.2723 232.491 99.3237 232.491C101.53 232.491 103.936 232.491 106.275 232.8C144.077 236.178 176.516 265.92 178.547 299.328C179.03 305.999 178.126 312.698 175.893 319.003C173.66 325.308 170.145 331.081 165.571 335.959Z" fill="url(#paint2_linear_152_1288)"/>
<path d="M131.322 272.876L102.347 297.186L86.9876 283.033L75.1372 292.991L103.693 319.311L144.54 285.064L131.322 272.876Z" fill="url(#paint3_linear_152_1288)"/>
</g>
<g filter="url(#filter2_f_152_1288)">
<ellipse cx="151.691" cy="256.193" rx="76.5175" ry="35.7285" fill="#346D63" fill-opacity="0.86"/>
</g>
<g clip-path="url(#clip1_152_1288)">
<path d="M276.389 171.468V171.224C276.389 170.761 276.242 168.006 275.706 163.911C275.706 163.57 275.584 163.204 275.535 162.839C275.487 162.473 275.389 161.79 275.292 161.23C273.248 148.235 268.65 135.774 261.763 124.567C261.031 123.348 260.276 122.129 259.471 121.008C255.7 115.394 251.363 110.183 246.527 105.455C244.183 103.09 241.691 100.875 239.068 98.8248C237.459 97.5085 235.777 96.2653 234.07 95.0464L233.802 94.8514L233.583 94.7051L232.705 94.0957C231.608 93.34 230.414 92.56 229.098 91.658H228.951L226.977 90.4879C226.684 90.2929 226.367 90.1222 226.05 89.9516L225.27 89.5128L224.637 89.1716C220.711 86.9758 216.638 85.0536 212.448 83.4186L210.01 82.4923L209.255 82.2242L208.499 81.956H208.377H208.206L206.963 81.5416H206.793H206.622L205.769 81.2734L204.647 80.9322L203.672 80.6397L203.112 80.4934H202.965H202.77H202.454L201.357 80.2253L200.455 79.9815L199.601 79.7621L199.041 79.6402L198.017 79.3965L197.261 79.2258L196.262 79.0308H196.091L195.336 78.8846H194.872L194.336 78.7626H194.141H193.849L193.02 78.6164H192.508L191.606 78.4701L190.826 78.3483H190.363H189.68H188.997L187.876 78.202H186.852H186.511H185.56L184.147 78.0801H183.171H182.099H180.977H178.54C176.517 78.0801 174.493 78.0801 172.494 78.0801H171.202H169.837H169.057L167.107 78.2263H166.449L163.767 78.5432L162.549 78.6895H162.28L160.403 78.982L158.965 79.2258C157.868 79.3964 157.015 79.5671 156.527 79.689C153.627 80.274 150.75 81.0053 147.898 81.8585C146.192 82.3217 144.705 82.8092 142.828 83.4918C135.028 86.2723 127.602 90.0059 120.718 94.6076L118.67 95.9971L118.402 96.1921C117.232 97.0209 115.964 97.8985 114.916 98.7761L114.648 98.9955H114.526H114.38L113.429 99.7512L111.601 101.263L110.601 102.116L108.7 103.822L108.286 104.212C105.165 107.113 103.264 109.234 103.142 109.356C102.191 110.404 101.241 111.501 100.29 112.622C99.3393 113.743 98.9249 114.207 98.218 115.06L98.0717 115.255V115.377C96.6823 117.132 95.1953 119.131 93.5864 121.52C92.8551 122.617 92.0994 123.836 91.3437 125.128L89.4667 128.272L87.5653 131.953L85.8345 135.39C84.6468 137.882 83.5971 140.437 82.6899 143.044C81.788 145.482 80.9592 148.212 80.2522 150.772V150.967C79.4075 153.908 78.732 156.895 78.2289 159.913C77.2435 165.261 76.7377 170.686 76.7176 176.124C76.5535 186.738 78.1094 197.308 81.3248 207.424C82.886 212.453 84.859 217.345 87.224 222.05C88.1781 224.085 89.2358 226.071 90.393 227.998C91.7581 230.436 93.2695 232.63 94.8784 234.897L95.439 235.75C97.2191 238.378 99.1909 240.871 101.338 243.209C102.776 244.769 104.653 246.89 106.214 248.377C107.774 249.864 109.7 251.814 111.333 253.252C113.112 254.788 113.77 255.422 115.526 256.69C117.573 258.298 119.621 259.785 121.717 261.175L123.765 262.491L126.081 263.881L127.592 264.734L127.885 264.88L130.054 266.075L130.59 266.343C133.484 267.867 136.454 269.242 139.488 270.463C140.219 270.779 141.243 271.169 142.438 271.633L143.461 271.998L145.241 272.632L146.484 273.046L146.923 273.168L147.606 273.388L148.727 273.729L149.848 274.046C153.917 275.22 158.063 276.107 162.256 276.703H162.622L163.743 276.849H163.865L164.84 276.971L167.034 277.215L170.374 277.507C171.276 277.507 172.397 277.507 173.469 277.654H175.005H179.612C181.026 277.654 182.928 277.483 184.342 277.41C187.364 277.142 191.362 276.654 194.36 276.167C196.676 275.777 199.772 275.143 202.039 274.509L203.843 273.973C205.647 273.461 207.5 272.876 209.035 272.413L210.864 271.73C212.302 271.218 213.74 270.682 215.154 270.097L215.885 269.829C217.567 269.195 219.591 268.22 221.394 267.391L222.76 265.953C224.997 264.831 227.169 263.586 229.268 262.223L229.463 262.101C231.17 261.004 232.876 259.859 234.534 258.664L235.582 257.933L237.41 256.495L238.848 255.349L241.603 253.155C243.608 251.506 245.512 249.74 247.307 247.865L247.453 247.719L247.721 247.426C249.16 245.939 250.793 244.184 252.597 242.015V241.868C255.675 238.288 258.471 234.474 260.958 230.46V230.314C261.738 229.071 262.518 227.73 263.396 226.34C263.737 225.755 264.054 225.146 264.395 224.512C264.736 223.878 265.322 222.806 265.687 222.074L266.053 221.319C266.687 219.978 267.345 218.589 267.954 217.15C268.832 215.176 269.661 213.177 270.246 211.446C271.318 208.521 272.293 205.401 273.147 202.085C273.683 200.086 274.17 198.063 274.487 196.211C274.804 194.358 275.219 192.091 275.487 189.946C275.487 189.434 275.609 188.971 275.657 188.507C275.999 185.607 276.194 182.608 276.267 179.537C276.267 179.537 276.267 179.317 276.267 179.22V179C276.608 176.49 276.559 174.028 276.389 171.468Z" fill="url(#paint4_radial_152_1288)"/>
<path d="M164.255 91.7797C157.624 88.1475 133.833 91.5359 136.88 114.401C137.197 116.425 137.611 119.155 137.977 121.203C166.449 120.788 166.985 120.788 173.738 117.57C181.319 113.963 183.732 106.308 178.613 101.823C177.15 100.531 172.933 97.7033 164.962 99.3853C167.741 94.9975 165.669 92.7791 164.182 91.8528" fill="#FF3B62"/>
<path d="M222.248 135.536C220.595 134.119 218.593 133.17 216.449 132.788C214.306 132.407 212.1 132.606 210.059 133.366C211.619 121.178 196.847 115.279 188.12 121.86C184.074 124.932 179.442 131.27 185.829 150.82L188.608 159.498C203.234 160.863 213.643 161.936 220.127 157.792C221.846 156.802 223.328 155.45 224.471 153.829C225.613 152.208 226.389 150.357 226.744 148.406C227.099 146.455 227.025 144.45 226.526 142.53C226.027 140.61 225.116 138.823 223.857 137.291C223.332 136.665 222.762 136.078 222.15 135.536" fill="#FF3B62"/>
<path d="M117.232 119.838C111.089 117.01 92.4893 145.458 104.044 177.465C104.044 177.075 104.288 176.514 104.556 175.685C107.311 167.275 116.403 159.255 121.01 151.016C114.136 143.41 114.209 132.441 120.523 123.129C119.426 122.032 118.67 120.691 117.232 119.838ZM200.82 183.072C198.761 181.597 196.612 180.254 194.385 179.049C186.072 186.874 175.151 191.238 163.548 184.973C157.6 192.286 154.236 202.817 148.922 209.35C148.556 209.789 148.215 210.203 147.825 210.593C160.433 211.829 173.129 209.399 184.39 203.597C188.388 201.574 207.963 191.116 201.113 183.559C201.028 183.389 200.931 183.226 200.82 183.072Z" fill="#412121"/>
<path d="M115.501 150.577C111.021 158.572 107.323 166.98 104.459 175.685C96.5849 200.403 118.061 228.51 142.023 215.054C144.677 213.595 147.02 211.633 148.922 209.277C154.212 202.792 160.282 195.528 166.205 188.288L115.501 150.577Z" fill="#FF3B62"/>
<path d="M194.458 179.024C149.678 150.357 126.836 129.295 120.888 123.518L120.596 123.201C120.45 123.372 106.896 140.046 114.989 149.894C115.331 150.333 161.305 192.334 175.931 190.75C184.61 189.799 194.409 179.122 194.482 179.024" fill="white"/>
</g>
<defs>
<filter id="filter0_f_152_1288" x="0.492584" y="0.589996" width="302.397" height="302.507" filterUnits="userSpaceOnUse" color-interpolation-filters="sRGB">
<feFlood flood-opacity="0" result="BackgroundImageFix"/>
<feBlend mode="normal" in="SourceGraphic" in2="BackgroundImageFix" result="shape"/>
<feGaussianBlur stdDeviation="27.705" result="effect1_foregroundBlur_152_1288"/>
</filter>
<filter id="filter1_f_152_1288" x="0.492584" y="201.35" width="217.378" height="249.197" filterUnits="userSpaceOnUse" color-interpolation-filters="sRGB">
<feFlood flood-opacity="0" result="BackgroundImageFix"/>
<feBlend mode="normal" in="SourceGraphic" in2="BackgroundImageFix" result="shape"/>
<feGaussianBlur stdDeviation="27.705" result="effect1_foregroundBlur_152_1288"/>
</filter>
<filter id="filter2_f_152_1288" x="26.7891" y="172.08" width="249.804" height="168.226" filterUnits="userSpaceOnUse" color-interpolation-filters="sRGB">
<feFlood flood-opacity="0" result="BackgroundImageFix"/>
<feBlend mode="normal" in="SourceGraphic" in2="BackgroundImageFix" result="shape"/>
<feGaussianBlur stdDeviation="24.1923" result="effect1_foregroundBlur_152_1288"/>
</filter>
<linearGradient id="paint0_linear_152_1288" x1="29.104" y1="298.047" x2="165.418" y2="356.791" gradientUnits="userSpaceOnUse">
<stop stop-color="#31FFAE"/>
<stop offset="0.01" stop-color="#2BF3A6"/>
<stop offset="0.04" stop-color="#1EDA96"/>
<stop offset="0.07" stop-color="#17CB8C"/>
<stop offset="0.09" stop-color="#14C689"/>
<stop offset="0.14" stop-color="#0EB17F"/>
<stop offset="0.21" stop-color="#089C74"/>
<stop offset="0.29" stop-color="#038C6D"/>
<stop offset="0.37" stop-color="#018368"/>
<stop offset="0.5" stop-color="#008067"/>
<stop offset="0.64" stop-color="#018368"/>
<stop offset="0.73" stop-color="#038C6D"/>
<stop offset="0.81" stop-color="#089B74"/>
<stop offset="0.88" stop-color="#0EB07E"/>
<stop offset="0.93" stop-color="#14C689"/>
<stop offset="0.95" stop-color="#17CC8B"/>
<stop offset="0.97" stop-color="#21DC92"/>
<stop offset="0.99" stop-color="#31F79C"/>
<stop offset="1" stop-color="#36FF9F"/>
</linearGradient>
<linearGradient id="paint1_linear_152_1288" x1="83.0156" y1="372.347" x2="136.96" y2="214.669" gradientUnits="userSpaceOnUse">
<stop stop-color="#08BF8C"/>
<stop offset="0.41" stop-color="#20E5A0"/>
<stop offset="0.67" stop-color="#31FFAE"/>
<stop offset="0.99" stop-color="#6EFFCD"/>
</linearGradient>
<linearGradient id="paint2_linear_152_1288" x1="123.091" y1="225.16" x2="97.1326" y2="360.551" gradientUnits="userSpaceOnUse">
<stop offset="0.08" stop-color="#D9FFFF"/>
<stop offset="1" stop-color="#D9FFFF" stop-opacity="0"/>
</linearGradient>
<linearGradient id="paint3_linear_152_1288" x1="115.389" y1="261.593" x2="90.6459" y2="383.603" gradientUnits="userSpaceOnUse">
<stop stop-color="#CCFFFF"/>
<stop offset="1" stop-color="#A8E7FF"/>
</linearGradient>
<radialGradient id="paint4_radial_152_1288" cx="0" cy="0" r="1" gradientUnits="userSpaceOnUse" gradientTransform="translate(179.101 197.186) scale(115.449 115.449)">
<stop stop-color="#F79F40"/>
<stop offset="0.16" stop-color="#F7A542"/>
<stop offset="0.37" stop-color="#F8B44A"/>
<stop offset="0.6" stop-color="#FACE55"/>
<stop offset="0.77" stop-color="#FBE660"/>
<stop offset="0.91" stop-color="#FBF36F"/>
<stop offset="0.93" stop-color="#FBF672"/>
<stop offset="0.95" stop-color="#FBF676"/>
<stop offset="0.96" stop-color="#FBF783"/>
<stop offset="0.98" stop-color="#FCF897"/>
<stop offset="0.99" stop-color="#FDFAB4"/>
<stop offset="1" stop-color="#FDFBC2"/>
</radialGradient>
<clipPath id="clip0_152_1288">
<rect width="146.11" height="138.377" fill="white" transform="translate(33.2307 231.807)"/>
</clipPath>
<clipPath id="clip1_152_1288">
<rect width="200.939" height="200.914" fill="white" transform="translate(75.6206 76.5928)"/>
</clipPath>
</defs>
</svg>
